<svg width="72" height="72" viewBox="0 0 72 72" xmlns="http://www.w3.org/2000/svg" fill="none">
  <defs>
    <radialGradient id="bg" cx="0" cy="0" r="1" gradientUnits="userSpaceOnUse" gradientTransform="translate(18 14) rotate(36) scale(68)">
      <stop stop-color="#4AD9FF"/>
      <stop offset="0.58" stop-color="#32AA63"/>
      <stop offset="1" stop-color="#174A60"/>
    </radialGradient>
    <linearGradient id="cup" x1="23" y1="23" x2="49" y2="49" gradientUnits="userSpaceOnUse">
      <stop stop-color="#FFF2AF"/>
      <stop offset="1" stop-color="#E0A12B"/>
    </linearGradient>
  </defs>

  <circle cx="36" cy="36" r="30" fill="url(#bg)"/>

  <path d="M27 22.5H45V27.5C45 33.3 40.3 38 34.5 38H33.5C27.7 38 23 33.3 23 27.5V22.5H27Z" fill="url(#cup)" stroke="#8B5D12" stroke-width="1.8"/>
  <path d="M27 25.5H21.5C21.5 30.2 24.2 33 27 33" stroke="#8B5D12" stroke-width="1.6" stroke-linecap="round"/>
  <path d="M45 25.5H50.5C50.5 30.2 47.8 33 45 33" stroke="#8B5D12" stroke-width="1.6" stroke-linecap="round"/>
  <rect x="33" y="38" width="6" height="7.5" rx="2" fill="#8B5D12"/>
  <rect x="28" y="45" width="16" height="5" rx="2.5" fill="#FF7B5B" stroke="#8B2E20" stroke-width="1.2"/>

  <circle cx="24" cy="46.5" r="2" fill="#77CEFF"/>
  <circle cx="48" cy="46.5" r="2" fill="#77CEFF"/>
</svg>
