<svg width="80" height="80" viewBox="0 0 80 80" fill="none" xmlns="http://www.w3.org/2000/svg">
  <defs>
    <radialGradient id="coinBg" cx="0" cy="0" r="1" gradientUnits="userSpaceOnUse" gradientTransform="translate(23 20) rotate(34) scale(64)">
      <stop stop-color="#FFE79B"/>
      <stop offset="0.62" stop-color="#F0C149"/>
      <stop offset="1" stop-color="#CB8C22"/>
    </radialGradient>
  </defs>

  <circle cx="40" cy="40" r="34" fill="url(#coinBg)" stroke="#F5D572" stroke-width="2"/>

  <!-- Right/top paw: close to provided silhouette -->
  <g fill="#1F1B21">
    <path d="M44.8 43.4C45.6 39.2 48.4 35.9 52.8 34.4C58 32.7 63.8 33.9 67.3 37.6C69.8 40.3 70.5 44.3 69.1 47.6C67.7 50.9 64.3 53.1 60.4 53.3C57.8 53.5 55.5 52.6 53.3 51.5C51.5 50.6 49.7 49.9 47.6 49.6C45.6 49.4 44.4 47.6 44.2 45.7C44.1 44.9 44.3 44.1 44.8 43.4Z"/>
    <path d="M43.5 31.1C42 29.5 41.7 26.9 42.5 24.9C43.1 23.4 44.2 22.2 45.8 21.7C47.1 21.3 48.4 21.6 49.1 22.8C49.9 24.3 49.9 25.9 49.8 27.5C49.8 29.1 49.6 30.8 48.6 32.1C47.4 33.7 44.9 33.5 43.5 31.1Z"/>
    <path d="M49.2 27.9C47.8 26.3 47.5 23.9 48.2 22C48.8 20.5 50 19.2 51.7 18.7C53 18.3 54.3 18.7 55.1 19.8C56.1 21.3 56.1 23.1 55.9 24.8C55.8 26.4 55.5 28 54.5 29.3C53.4 30.8 50.8 30.6 49.2 27.9Z"/>
    <path d="M55.1 28.2C53.8 26.6 53.6 24.4 54.2 22.6C54.8 20.9 56 19.6 57.8 19.1C59 18.7 60.2 19 61 20C62 21.4 62 23.1 61.8 24.7C61.6 26.3 61.3 27.8 60.3 29.1C59.2 30.6 56.7 30.7 55.1 28.2Z"/>
    <path d="M61 32.2C59.8 30.8 59.7 28.8 60.2 27.1C60.8 25.5 61.9 24.2 63.5 23.7C64.8 23.3 66 23.7 66.8 24.8C67.8 26.1 68 27.7 67.9 29.3C67.7 30.8 67.3 32.3 66.3 33.5C65.3 34.7 62.8 34.8 61 32.2Z"/>
  </g>

  <!-- Left/bottom paw: same shape mirrored and scaled -->
  <g fill="#1F1B21" transform="translate(8 8) scale(0.9)">
    <path d="M13.1 53.6C13.9 49.4 16.7 46.1 21.1 44.6C26.3 42.9 32.1 44.1 35.6 47.8C38.1 50.5 38.8 54.5 37.4 57.8C36 61.1 32.6 63.3 28.7 63.5C26.1 63.7 23.8 62.8 21.6 61.7C19.8 60.8 18 60.1 15.9 59.8C13.9 59.6 12.7 57.8 12.5 55.9C12.4 55.1 12.6 54.3 13.1 53.6Z"/>
    <path d="M11.8 41.3C10.3 39.7 10 37.1 10.8 35.1C11.4 33.6 12.5 32.4 14.1 31.9C15.4 31.5 16.7 31.8 17.4 33C18.2 34.5 18.2 36.1 18.1 37.7C18.1 39.3 17.9 41 16.9 42.3C15.7 43.9 13.2 43.7 11.8 41.3Z"/>
    <path d="M17.5 38.1C16.1 36.5 15.8 34.1 16.5 32.2C17.1 30.7 18.3 29.4 20 28.9C21.3 28.5 22.6 28.9 23.4 30C24.4 31.5 24.4 33.3 24.2 35C24.1 36.6 23.8 38.2 22.8 39.5C21.7 41 19.1 40.8 17.5 38.1Z"/>
    <path d="M23.4 38.4C22.1 36.8 21.9 34.6 22.5 32.8C23.1 31.1 24.3 29.8 26.1 29.3C27.3 28.9 28.5 29.2 29.3 30.2C30.3 31.6 30.3 33.3 30.1 34.9C29.9 36.5 29.6 38 28.6 39.3C27.5 40.8 25 40.9 23.4 38.4Z"/>
    <path d="M29.3 42.4C28.1 41 28 39 28.5 37.3C29.1 35.7 30.2 34.4 31.8 33.9C33.1 33.5 34.3 33.9 35.1 35C36.1 36.3 36.3 37.9 36.2 39.5C36 41 35.6 42.5 34.6 43.7C33.6 44.9 31.1 45 29.3 42.4Z"/>
  </g>
</svg>
