<svg xmlns="http://www.w3.org/2000/svg" viewBox="0 0 96 96" role="img" aria-label="Circular economy icon">
  <defs>
    <linearGradient id="arc1" x1="0" y1="0" x2="1" y2="1">
      <stop offset="0" stop-color="#34d399"/>
      <stop offset="1" stop-color="#22c55e"/>
    </linearGradient>
    <linearGradient id="arc2" x1="1" y1="0" x2="0" y2="1">
      <stop offset="0" stop-color="#60a5fa"/>
      <stop offset="1" stop-color="#0ea5e9"/>
    </linearGradient>
    <linearGradient id="arc3" x1="0" y1="1" x2="1" y2="0">
      <stop offset="0" stop-color="#f59e0b"/>
      <stop offset="1" stop-color="#f97316"/>
    </linearGradient>
  </defs>
  <circle cx="48" cy="48" r="36" fill="#103b31"/>
  <path d="M48 16a32 32 0 0 1 26 14l-6 3 14 4 2-14-6 3A40 40 0 0 0 48 8z" fill="url(#arc1)"/>
  <path d="M75 45a32 32 0 0 1-12 31l-3-6-4 14 14 2-3-6A40 40 0 0 0 83 45z" fill="url(#arc2)"/>
  <path d="M34 79A32 32 0 0 1 17 26l6 3-2-14-14 4 6 3A40 40 0 0 0 34 87z" fill="url(#arc3)"/>
  <circle cx="48" cy="48" r="9" fill="#ffd166"/>
</svg>
