<svg width="72" height="72" viewBox="0 0 72 72" fill="none" xmlns="http://www.w3.org/2000/svg">
  <defs>
    <linearGradient id="bg" x1="10" y1="8" x2="62" y2="64" gradientUnits="userSpaceOnUse">
      <stop stop-color="#1C4FD1"/>
      <stop offset="0.45" stop-color="#1FA4B8"/>
      <stop offset="1" stop-color="#44B35A"/>
    </linearGradient>
    <linearGradient id="ground" x1="14" y1="56" x2="58" y2="56" gradientUnits="userSpaceOnUse">
      <stop stop-color="#2BAA56"/>
      <stop offset="1" stop-color="#8AD947"/>
    </linearGradient>
    <linearGradient id="towerL" x1="23" y1="31" x2="30" y2="49" gradientUnits="userSpaceOnUse">
      <stop stop-color="#7FD8FF"/>
      <stop offset="1" stop-color="#2A7BEA"/>
    </linearGradient>
    <linearGradient id="towerM" x1="32" y1="27" x2="40" y2="49" gradientUnits="userSpaceOnUse">
      <stop stop-color="#FFC86A"/>
      <stop offset="1" stop-color="#F0802E"/>
    </linearGradient>
    <linearGradient id="towerR" x1="41" y1="34" x2="48" y2="49" gradientUnits="userSpaceOnUse">
      <stop stop-color="#C8FF7E"/>
      <stop offset="1" stop-color="#4BBF5C"/>
    </linearGradient>
    <radialGradient id="sunGlow" cx="0" cy="0" r="1" gradientUnits="userSpaceOnUse" gradientTransform="translate(19 21) rotate(90) scale(9)">
      <stop stop-color="#FFE476" stop-opacity="0.95"/>
      <stop offset="1" stop-color="#FFE476" stop-opacity="0"/>
    </radialGradient>
  </defs>

  <circle cx="36" cy="36" r="30" fill="url(#bg)" stroke="#F2CF55" stroke-width="2"/>

  <circle cx="19" cy="21" r="9" fill="url(#sunGlow)"/>
  <circle cx="19" cy="21" r="2.1" fill="#FFD95A"/>
  <circle cx="24" cy="17.5" r="1.5" fill="#FFE485"/>

  <path d="M14 54.5C19.8 49.4 27.7 47 36 47C44.3 47 52.2 49.4 58 54.5V58H14V54.5Z" fill="url(#ground)"/>

  <rect x="23" y="31" width="6.2" height="18" rx="1.6" fill="url(#towerL)"/>
  <rect x="32" y="27" width="7.2" height="22" rx="1.6" fill="url(#towerM)"/>
  <rect x="41" y="34" width="6.2" height="15" rx="1.6" fill="url(#towerR)"/>

  <rect x="24.6" y="35" width="1.4" height="1.4" rx="0.4" fill="#F6FBFF"/>
  <rect x="26.9" y="35" width="1.4" height="1.4" rx="0.4" fill="#F6FBFF"/>
  <rect x="24.6" y="38" width="1.4" height="1.4" rx="0.4" fill="#F6FBFF"/>
  <rect x="26.9" y="38" width="1.4" height="1.4" rx="0.4" fill="#F6FBFF"/>

  <rect x="33.8" y="31" width="1.5" height="1.5" rx="0.4" fill="#FFF7DA"/>
  <rect x="36.2" y="31" width="1.5" height="1.5" rx="0.4" fill="#FFF7DA"/>
  <rect x="33.8" y="34" width="1.5" height="1.5" rx="0.4" fill="#FFF7DA"/>
  <rect x="36.2" y="34" width="1.5" height="1.5" rx="0.4" fill="#FFF7DA"/>

  <rect x="42.6" y="37" width="1.4" height="1.4" rx="0.4" fill="#F4FFE6"/>
  <rect x="44.9" y="37" width="1.4" height="1.4" rx="0.4" fill="#F4FFE6"/>
  <rect x="42.6" y="40" width="1.4" height="1.4" rx="0.4" fill="#F4FFE6"/>
  <rect x="44.9" y="40" width="1.4" height="1.4" rx="0.4" fill="#F4FFE6"/>

  <path d="M48 24.8L53 19.8" stroke="#FFD95A" stroke-width="2.8" stroke-linecap="round"/>
  <path d="M53 19.8H49.8" stroke="#FFD95A" stroke-width="2.8" stroke-linecap="round"/>
  <path d="M53 19.8V23" stroke="#FFD95A" stroke-width="2.8" stroke-linecap="round"/>

  <circle cx="52.5" cy="30" r="1.2" fill="#FFE37D"/>
  <circle cx="49.2" cy="33.3" r="1" fill="#FFE37D"/>
</svg>
