<svg xmlns="http://www.w3.org/2000/svg" viewBox="0 0 96 96" role="img" aria-label="Stitched globe">
  <defs>
    <radialGradient id="ocean" cx="35%" cy="30%" r="70%">
      <stop offset="0" stop-color="#66d3ff"/>
      <stop offset="1" stop-color="#1d4ed8"/>
    </radialGradient>
    <linearGradient id="land" x1="0" y1="0" x2="1" y2="1">
      <stop offset="0" stop-color="#84cc16"/>
      <stop offset="1" stop-color="#22c55e"/>
    </linearGradient>
  </defs>
  <circle cx="48" cy="48" r="38" fill="url(#ocean)"/>
  <path d="M28 33c4-6 10-8 15-6 4 1 7 0 10-3 4 1 8 3 9 7-2 3-5 5-5 8 0 4 4 5 7 7-1 5-4 8-9 10-5 1-8 4-10 8-6 0-11-2-15-7-4-6-5-16-2-24z" fill="url(#land)"/>
  <path d="M20 48h56" stroke="#bfe7ff" stroke-opacity="0.45" stroke-width="2"/>
  <path d="M48 14v68" stroke="#bfe7ff" stroke-opacity="0.45" stroke-width="2"/>
  <path d="M31 30l7 7m-4-10l7 7m-4-10l7 7m7 2l7 7m-4-10l7 7m-4-10l7 7m-8 10l-8 8m11-4l-8 8m11-4l-8 8" stroke="#f8f1d1" stroke-width="1.8" stroke-linecap="round"/>
</svg>
