<svg width="72" height="72" viewBox="0 0 72 72" fill="none" xmlns="http://www.w3.org/2000/svg">
  <defs>
    <radialGradient id="bg" cx="0" cy="0" r="1" gradientUnits="userSpaceOnUse" gradientTransform="translate(21 18) rotate(34) scale(56)">
      <stop stop-color="#FFE28A"/>
      <stop offset="1" stop-color="#D29320"/>
    </radialGradient>
  </defs>

  <circle cx="36" cy="36" r="30" fill="#1A4D62"/>
  <circle cx="36" cy="36" r="27" fill="url(#bg)"/>

  <!-- Toes -->
  <ellipse cx="22.5" cy="28.5" rx="5.8" ry="6.8" fill="#5A3B1E"/>
  <ellipse cx="32" cy="22.5" rx="5.7" ry="6.6" fill="#5A3B1E"/>
  <ellipse cx="40.5" cy="22.5" rx="5.7" ry="6.6" fill="#5A3B1E"/>
  <ellipse cx="50" cy="28.5" rx="5.8" ry="6.8" fill="#5A3B1E"/>

  <!-- Main pad -->
  <path d="M36 52C27.4 52 21 46.4 21 39.6C21 33.8 25.4 29.7 31 30.2C33 30.4 34.8 31.1 36 32.4C37.2 31.1 39 30.4 41 30.2C46.6 29.7 51 33.8 51 39.6C51 46.4 44.6 52 36 52Z" fill="#5A3B1E"/>

  <!-- Soft claw marks -->
  <path d="M19.8 20.6L22.2 16.6" stroke="#8A6A3D" stroke-width="2" stroke-linecap="round"/>
  <path d="M29.4 14.8L31.4 11.1" stroke="#8A6A3D" stroke-width="2" stroke-linecap="round"/>
  <path d="M40.6 14.8L42.6 11.1" stroke="#8A6A3D" stroke-width="2" stroke-linecap="round"/>
  <path d="M49.8 20.6L52.2 16.6" stroke="#8A6A3D" stroke-width="2" stroke-linecap="round"/>

  <circle cx="36" cy="36" r="30" stroke="#F2CF55" stroke-width="2"/>
</svg>
