<svg width="72" height="72" viewBox="0 0 72 72" fill="none" xmlns="http://www.w3.org/2000/svg">
  <defs>
    <radialGradient id="bg" cx="0" cy="0" r="1" gradientUnits="userSpaceOnUse" gradientTransform="translate(20 16) rotate(38) scale(64)">
      <stop stop-color="#59D9FF"/>
      <stop offset="0.55" stop-color="#41B56A"/>
      <stop offset="1" stop-color="#1B4D62"/>
    </radialGradient>
    <linearGradient id="mount" x1="16" y1="26" x2="56" y2="44" gradientUnits="userSpaceOnUse">
      <stop stop-color="#BFD6E8"/>
      <stop offset="1" stop-color="#7EA5C3"/>
    </linearGradient>
    <linearGradient id="river" x1="15" y1="41" x2="57" y2="50" gradientUnits="userSpaceOnUse">
      <stop stop-color="#D8F5FF"/>
      <stop offset="1" stop-color="#78C7EB"/>
    </linearGradient>
  </defs>

  <circle cx="36" cy="36" r="30" fill="url(#bg)"/>

  <path d="M16 38L27 25L35 34L43 22L56 38H16Z" fill="url(#mount)" stroke="#4A6F8A" stroke-width="1.3" stroke-linejoin="round"/>
  <path d="M15 44C21 42 27 42.5 33 45C39 47.5 46 47 57 44V52H15V44Z" fill="url(#river)" stroke="#4B8CB2" stroke-width="1.1"/>

  <path d="M18.5 48L20.7 42.5L22.9 48H18.5Z" fill="#2D7E45"/>
  <path d="M24.5 48L26.9 41.8L29.3 48H24.5Z" fill="#2E874A"/>
  <path d="M50 48L52.3 42.4L54.6 48H50Z" fill="#2D7E45"/>

  <circle cx="34.8" cy="41" r="4" fill="#FFD8B0" stroke="#A1673B" stroke-width="1"/>
  <path d="M31.6 50.2C32.4 47.4 34 46.1 36.2 46.1C38.3 46.1 39.8 47.3 40.6 50.2H31.6Z" fill="#5B7FC2"/>
  <path d="M34.9 40.5C36 39.2 37.3 38.7 39 38.8" stroke="#8B5D33" stroke-width="1.4" stroke-linecap="round"/>
  <path d="M36.3 41.1L39.8 41.1" stroke="#8B5D33" stroke-width="1.4" stroke-linecap="round"/>
  <path d="M32 38.2L35.8 37.8L37 39.9L32.8 40.4L32 38.2Z" fill="#4C9D58" stroke="#2A6B39" stroke-width="1"/>
  <circle cx="48" cy="20" r="3.3" fill="#FFE27A"/>
</svg>
